<?xml version="1.0" standalone="no"?><!DOCTYPE svg PUBLIC "-//W3C//DTD SVG 1.1//EN" "http://www.w3.org/Graphics/SVG/1.1/DTD/svg11.dtd"><svg t="1580882369707" class="icon" viewBox="0 0 1024 1024" version="1.1" xmlns="http://www.w3.org/2000/svg" p-id="12035" xmlns:xlink="http://www.w3.org/1999/xlink" width="40" height="40"><defs><style type="text/css"></style></defs><path d="M951.467 147.2l-147.2-85.333c-19.2-10.667-44.8-10.667-64 0L590.933 147.2c-10.666 6.4-19.2 14.933-23.466 25.6L546.133 160c-19.2-10.667-44.8-10.667-64 0L460.8 172.8c-6.4-10.667-12.8-19.2-23.467-25.6L288 61.867c-19.2-10.667-44.8-10.667-64 0L76.8 147.2c-23.467 12.8-34.133 34.133-34.133 55.467v170.666c0 23.467 12.8 44.8 32 55.467L224 514.133c10.667 6.4 21.333 8.534 32 8.534v23.466c0 23.467 12.8 44.8 32 55.467l19.2 10.667c-4.267 8.533-6.4 17.066-6.4 25.6v170.666c0 23.467 12.8 44.8 32 55.467L480 949.333c10.667 6.4 21.333 8.534 32 8.534s21.333-2.134 32-8.534L691.2 864c19.2-10.667 32-32 32-55.467V637.867c0-8.534-2.133-19.2-6.4-27.734l19.2-10.666c19.2-10.667 32-32 32-55.467v-25.6h2.133c10.667 0 21.334-2.133 32-8.533l149.334-85.334c19.2-10.666 32-32 32-55.466V198.4c-2.134-17.067-12.8-38.4-32-51.2zM512 238.933L682.667 339.2v198.4l-172.8 98.133L339.2 535.467v-198.4L512 238.933zM253.867 435.2L128 362.667v-147.2l125.867-72.534 128 72.534v2.133L288 270.933c-19.2 10.667-32 32-32 55.467l-2.133 108.8z m384 364.8l-128 74.667L384 800V661.333l93.867 55.467c10.666 6.4 21.333 8.533 32 8.533s21.333-2.133 32-8.533l96-55.467V800zM896 362.667L768 435.2h-2.133V328.533c0-23.466-12.8-44.8-32-55.466L640 219.733V217.6l128-72.533L893.867 217.6 896 362.667z" p-id="12036"></path></svg>