<?xml version="1.0" standalone="no"?><!DOCTYPE svg PUBLIC "-//W3C//DTD SVG 1.1//EN" "http://www.w3.org/Graphics/SVG/1.1/DTD/svg11.dtd"><svg t="1580895841902" class="icon" viewBox="0 0 1024 1024" version="1.1" xmlns="http://www.w3.org/2000/svg" p-id="17311" xmlns:xlink="http://www.w3.org/1999/xlink" width="40" height="40"><defs><style type="text/css"></style></defs><path d="M652.8 650.24c-23.04 0-40.96-17.92-40.96-40.96v-40.96c0-23.04 17.92-40.96 40.96-40.96 23.04 0 40.96 17.92 40.96 40.96v40.96c0 20.48-17.92 40.96-40.96 40.96z m-281.6 0c-23.04 0-40.96-17.92-40.96-40.96v-40.96c0-23.04 17.92-40.96 40.96-40.96 23.04 0 40.96 17.92 40.96 40.96v40.96c0 20.48-17.92 40.96-40.96 40.96z m0 0" p-id="17312"></path><path d="M780.8 998.4h-537.6C151.04 998.4 76.8 924.16 76.8 832V665.6c0-240.64 194.56-435.2 435.2-435.2s435.2 194.56 435.2 435.2v163.84c0 94.72-74.24 168.96-166.4 168.96zM512 314.88c-194.56 0-350.72 158.72-350.72 350.72v163.84c0 46.08 38.4 84.48 84.48 84.48h537.6c46.08 0 84.48-38.4 84.48-84.48V665.6c-5.12-192-161.28-350.72-355.84-350.72z m0 0" p-id="17313"></path><path d="M312.32 350.72c-20.48 10.24-46.08 5.12-56.32-15.36L161.28 176.64c-10.24-20.48-5.12-46.08 15.36-56.32 20.48-10.24 46.08-5.12 56.32 15.36l94.72 161.28c10.24 17.92 5.12 43.52-15.36 53.76z m0 0" p-id="17314"></path><path d="M122.88 192c23.04 40.96 74.24 53.76 115.2 30.72 40.96-23.04 53.76-74.24 30.72-115.2-25.6-38.4-76.8-51.2-115.2-28.16C112.64 102.4 99.84 153.6 122.88 192z m0 0M721.92 350.72c20.48 10.24 46.08 5.12 56.32-15.36l94.72-161.28c10.24-20.48 5.12-46.08-15.36-56.32-20.48-10.24-46.08-5.12-56.32 15.36l-94.72 161.28c-10.24 20.48-5.12 46.08 15.36 56.32z m0 0" p-id="17315"></path><path d="M798.72 222.72c25.6 15.36 56.32 15.36 84.48 0 25.6-15.36 40.96-40.96 40.96-71.68 0-30.72-15.36-56.32-40.96-71.68-25.6-15.36-56.32-15.36-84.48 0-25.6 15.36-40.96 40.96-40.96 71.68-2.56 28.16 15.36 56.32 40.96 71.68z m0 0M596.48 849.92h-166.4c-23.04 0-40.96-17.92-40.96-40.96 0-23.04 17.92-40.96 40.96-40.96h166.4c23.04 0 40.96 17.92 40.96 40.96 0 23.04-20.48 40.96-40.96 40.96z m0 0M563.2 184.32c-10.24 0-23.04-5.12-30.72-12.8l-33.28-35.84-23.04 33.28c-7.68 10.24-20.48 17.92-33.28 17.92h-71.68c-23.04 0-40.96-17.92-40.96-40.96 0-23.04 17.92-40.96 40.96-40.96h51.2L460.8 43.52c7.68-10.24 20.48-17.92 33.28-17.92s25.6 5.12 33.28 12.8l53.76 61.44H665.6c23.04 0 40.96 17.92 40.96 40.96s-17.92 40.96-40.96 40.96l-102.4 2.56z m0 0" p-id="17316"></path></svg>