<?xml version="1.0" standalone="no"?><!DOCTYPE svg PUBLIC "-//W3C//DTD SVG 1.1//EN" "http://www.w3.org/Graphics/SVG/1.1/DTD/svg11.dtd"><svg t="1580895752470" class="icon" viewBox="0 0 1024 1024" version="1.1" xmlns="http://www.w3.org/2000/svg" p-id="16547" xmlns:xlink="http://www.w3.org/1999/xlink" width="40" height="40"><defs><style type="text/css"></style></defs><path d="M320 1024a320 320 0 1 1 0-640 320 320 0 0 1 0 640z m0-128a192 192 0 1 0 0-384 192 192 0 0 0 0 384z" p-id="16548"></path><path d="M557.226667 514.56a64 64 0 0 1-90.453334-90.453333l341.333334-341.333334a64 64 0 0 1 90.453333 90.453334l-341.333333 341.333333z" p-id="16549"></path><path d="M637.44 386.56a64 64 0 0 1 90.453333-90.453333l128 128a64 64 0 0 1-90.453333 90.453333l-128-128zM992.170667 173.653333a64 64 0 0 1-90.453334 90.453334l-85.333333-85.333334a64 64 0 1 1 90.453333-90.453333l85.333334 85.333333z" p-id="16550"></path></svg>