<?xml version="1.0" standalone="no"?><!DOCTYPE svg PUBLIC "-//W3C//DTD SVG 1.1//EN" "http://www.w3.org/Graphics/SVG/1.1/DTD/svg11.dtd"><svg t="1580895145622" class="icon" viewBox="0 0 1024 1024" version="1.1" xmlns="http://www.w3.org/2000/svg" p-id="14956" xmlns:xlink="http://www.w3.org/1999/xlink" width="40" height="40"><defs><style type="text/css"></style></defs><path d="M558.592 941.056h69.632l70.144-349.696h-70.144zM460.288 605.696l-104.96 139.776-15.36 20.992 15.36 20.48 104.96 139.776 56.832-41.472-89.6-118.784 89.6-119.296zM796.672 605.696l-56.832 41.472 89.6 119.296-89.6 118.784 56.832 41.472 104.96-139.776 15.36-20.48-15.36-20.992z" p-id="14957"></path><path d="M103.936 82.432v861.696h207.872v-76.288h-131.072V158.72h661.504v343.552h76.8v-419.84z" p-id="14958"></path><path d="M291.328 255.488h452.096v76.8h-452.096zM291.328 423.424h452.096v76.8h-452.096z" p-id="14959"></path></svg>