<?xml version="1.0" standalone="no"?><!DOCTYPE svg PUBLIC "-//W3C//DTD SVG 1.1//EN" "http://www.w3.org/Graphics/SVG/1.1/DTD/svg11.dtd"><svg t="1580883011045" class="icon" viewBox="0 0 1024 1024" version="1.1" xmlns="http://www.w3.org/2000/svg" p-id="12808" xmlns:xlink="http://www.w3.org/1999/xlink" width="40" height="40"><defs><style type="text/css"></style></defs><path d="M907.622 452.602c0.536 11.456 0.556 102.928 0.102 114.386-149.032 37.778-156.078 54.366-77.72 186.332-1.71 1.836-74.574 74.896-81.292 80.966-130.618-77.47-146.78-71.754-185.056 73.714-12.214 0.384-104.44 0.206-116.64-0.53-37.658-142.436-51.454-149.338-177.976-77.236-0.79-0.734-75.876-75.536-83.812-84.506 70.612-124.24 65.884-137.274-70.72-175.682-0.636-13.5-0.568-107.026 0.166-120.522 135.826-38.25 140.81-50.694 71.52-173.904 6.634-7.444 82.248-82.874 84.75-85.174 124.594 70.186 137.524 63.924 175.326-75.426 12.694-0.79 105.418-0.972 118.128-0.548 38.432 142.368 53.714 147.488 182.388 71.99 8.528 7.608 81.796 81.134 82.2 81.564-77.004 130.946-69.656 146.952 78.636 184.576z m-396.56-68.352c-70.14 0-127 56.86-127 127s56.86 127 127 127 127-56.86 127-127-56.86-127-127-127z" p-id="12809"></path></svg>