<?xml version="1.0" standalone="no"?><!DOCTYPE svg PUBLIC "-//W3C//DTD SVG 1.1//EN" "http://www.w3.org/Graphics/SVG/1.1/DTD/svg11.dtd"><svg t="1581942336028" class="icon" viewBox="0 0 1024 1024" version="1.1" xmlns="http://www.w3.org/2000/svg" p-id="2180" xmlns:xlink="http://www.w3.org/1999/xlink" width="40" height="40"><defs><style type="text/css"></style></defs><path d="M345.135 383.746c0 75.251 52.289 138.508 122.439 155.373l-1.394 250.113c-0.118 10.257 3.974 20.301 11.228 27.555 7.243 7.245 16.874 11.234 27.118 11.234l0.36-0.003c21.44 0 38.885-17.363 38.885-38.708V682.17h44.22c21.311-0.122 38.698-17.554 38.757-38.881 0-21.444-17.403-38.89-38.795-38.89h-44.18v-65.645c69.401-17.396 120.954-80.29 120.954-155.008 0-88.113-71.686-159.798-159.8-159.798-88.11 0.002-159.792 71.687-159.792 159.8z m254.63 0c0 52.29-42.545 94.833-94.839 94.833-52.291 0-94.832-42.541-94.832-94.833 0-52.294 42.54-94.839 94.832-94.839 52.294 0 94.84 42.545 94.84 94.84z" p-id="2181"></path><path d="M899.562 118.249L544.684 4.318 535.7 1.525v0.606C528.585 0.741 520.458 0 512.017 0c-12.293 0-23.91 1.566-32.7 4.407L124.444 118.291c-19.83 6.363-35.363 27.596-35.363 48.34v497.108l0.143 0.69c10.108 48.773 37.143 97.815 80.356 145.76 34.288 38.04 78.817 75.527 132.355 111.412 89.488 59.984 175.008 95.622 178.514 97.073 7.735 3.434 17.721 5.325 28.138 5.326h0.004c12.873 0 25.495-2.869 34.65-7.875 3.087-1.601 92.641-48.269 184.34-113.59 54.67-38.945 99.452-76.838 133.1-112.629 42.612-45.324 67.554-87.618 74.134-125.7l0.1-0.583V166.4c0.002-20.644-15.529-41.796-35.354-48.151z m-35.986 538.143a118.213 118.213 0 0 1-13.663 31.53l-0.077 0.127c-25.24 42.778-78.104 94.148-152.86 148.541a1578.721 1578.721 0 0 1-128.671 83.767 1610.571 1610.571 0 0 1-57.113 31.938c-0.814 0.102-2.178 0.217-2.913 0.28-0.24 0.021-0.5 0.043-0.773 0.07a1019.322 1019.322 0 0 1-56.363-26.469c-45.882-23.306-88.482-48.766-126.62-75.674-91.863-64.77-148.585-132.087-164.1-194.729V181.661L500.729 72.415a58.99 58.99 0 0 1 11.268-1.088c3.773 0 7.563 0.366 11.267 1.088l340.308 109.246v474.731z" p-id="2182"></path></svg>