<?xml version="1.0" standalone="no"?><!DOCTYPE svg PUBLIC "-//W3C//DTD SVG 1.1//EN" "http://www.w3.org/Graphics/SVG/1.1/DTD/svg11.dtd"><svg t="1580881595402" class="icon" viewBox="0 0 1024 1024" version="1.1" xmlns="http://www.w3.org/2000/svg" p-id="10458" xmlns:xlink="http://www.w3.org/1999/xlink" width="40" height="40"><defs><style type="text/css"></style></defs><path d="M895 139.5H129c-35.2 0-64 28.8-64 64v617c0 35.2 28.8 64 64 64h766c35.2 0 64-28.8 64-64v-617c0-35.2-28.8-64-64-64z m-476.1 170h37.3c20.5 0 37.3 16.8 37.3 37.3 0 20.5-16.8 37.3-37.3 37.3h-37.3c-20.5 0-37.3-16.8-37.3-37.3 0-20.5 16.8-37.3 37.3-37.3z m-167.7 0h37.3c20.5 0 37.3 16.8 37.3 37.3 0 20.5-16.8 37.3-37.3 37.3h-37.3c-20.5 0-37.3-16.8-37.3-37.3 0.2-20.5 16.9-37.3 37.3-37.3z m521.6 426H251.2c-20.5 0-37.3-16.8-37.3-37.3s16.8-37.3 37.3-37.3h521.5c20.5 0 37.3 16.8 37.3 37.3s-16.8 37.3-37.2 37.3z m0-186.2H251.2c-20.5 0-37.3-16.8-37.3-37.3 0-20.5 16.8-37.3 37.3-37.3h521.5c20.5 0 37.3 16.8 37.3 37.3-0.1 20.5-16.8 37.3-37.2 37.3z" p-id="10459"></path></svg>