<?xml version="1.0" standalone="no"?><!DOCTYPE svg PUBLIC "-//W3C//DTD SVG 1.1//EN" "http://www.w3.org/Graphics/SVG/1.1/DTD/svg11.dtd"><svg t="1580881604873" class="icon" viewBox="0 0 1024 1024" version="1.1" xmlns="http://www.w3.org/2000/svg" p-id="11186" xmlns:xlink="http://www.w3.org/1999/xlink" width="40" height="40"><defs><style type="text/css"></style></defs><path d="M294.9 254.64H710v51.88H294.9z m-1.38 104.27h415.07v51.89H293.52zM191.13 150h622.61v415.09h51.88V150a51.88 51.88 0 0 0-51.88-51.88H191.13A51.88 51.88 0 0 0 139.25 150v726.4a51.88 51.88 0 0 0 51.88 51.88h363.19V876.4H191.13z m103.43 416.44v51.89h126.19a181.81 181.81 0 0 1 7.53-51.89z m212.13-103.76H293.52v51.88h157.72a182.42 182.42 0 0 1 55.45-51.88z m392.84 417.58l-119-117.56a181.59 181.59 0 1 0-319.26-118.38c0 100.29 81.3 181.6 181.59 181.6a180.77 180.77 0 0 0 98.5-29l121.49 120a25.94 25.94 0 1 0 36.68-36.68zM513.15 644.32A129.71 129.71 0 1 1 642.86 774a129.72 129.72 0 0 1-129.71-129.68z" p-id="11187"></path></svg>