<?xml version="1.0" standalone="no"?><!DOCTYPE svg PUBLIC "-//W3C//DTD SVG 1.1//EN" "http://www.w3.org/Graphics/SVG/1.1/DTD/svg11.dtd"><svg t="1580878934847" class="icon" viewBox="0 0 1024 1024" version="1.1" xmlns="http://www.w3.org/2000/svg" p-id="2698" xmlns:xlink="http://www.w3.org/1999/xlink" width="40" height="40"><defs><style type="text/css"></style></defs><path d="M510.21312 829.44c0 21.76512 14.66368 37.57056 34.87232 37.57056h392.8576c20.19328 0 34.8672-15.80544 34.8672-37.57056s-14.67392-37.56544-34.8672-37.56544h-392.8576c-20.20864 0-34.87232 15.80032-34.87232 37.56544z m0-634.84928c0 21.76512 14.66368 37.57056 34.87232 37.57056h392.8576c20.19328 0 34.8672-15.80544 34.8672-37.57056s-14.67392-37.57056-34.8672-37.57056h-392.8576c-20.20864 0-34.87232 15.80544-34.87232 37.57056z m2.2272 317.44c0-21.77024-14.62272-37.57056-34.76992-37.57056h-391.68C65.8176 474.4448 51.2 490.24512 51.2 512s14.62272 37.56032 34.76992 37.56032h391.68c20.15232 0 34.76992-15.7952 34.76992-37.56032z m-46.45888 317.44c0-79.05792-62.8736-143.36-140.16-143.36A140.84608 140.84608 0 0 0 190.976 791.86944H87.92064a37.57568 37.57568 0 0 0 0 75.136H190.976A140.84096 140.84096 0 0 0 325.82144 972.8c77.312 0 140.16-64.31744 140.16-143.36z m-140.16 68.20864A68.25984 68.25984 0 1 1 392.53504 829.44a67.584 67.584 0 0 1-66.7136 68.24448zM465.98144 194.5856c0-79.05792-62.8736-143.36-140.16-143.36A140.8512 140.8512 0 0 0 190.976 157.02016H87.92064A35.93728 35.93728 0 0 0 51.2 194.5856a35.93728 35.93728 0 0 0 36.73088 37.57056H190.976a140.84608 140.84608 0 0 0 134.84544 105.8048c77.312 0 140.16-64.31744 140.16-143.36zM325.82144 262.83008a68.25984 68.25984 0 1 1 66.7136-68.23936 67.584 67.584 0 0 1-66.7136 68.23936z m507.20256 286.7456h103.0656a37.57568 37.57568 0 0 0 0-75.13088H833.024A140.83072 140.83072 0 0 0 698.18368 368.64c-77.28128 0-140.15488 64.31744-140.15488 143.36s62.8736 143.36 140.15488 143.36a140.83584 140.83584 0 0 0 134.84032-105.78432z m-134.83008 30.67392A68.25472 68.25472 0 1 1 764.89216 512a67.584 67.584 0 0 1-66.70336 68.23424z m0 0" p-id="2699"></path></svg>