<?xml version="1.0" standalone="no"?><!DOCTYPE svg PUBLIC "-//W3C//DTD SVG 1.1//EN" "http://www.w3.org/Graphics/SVG/1.1/DTD/svg11.dtd"><svg t="1580895168848" class="icon" viewBox="0 0 1024 1024" version="1.1" xmlns="http://www.w3.org/2000/svg" p-id="15814" xmlns:xlink="http://www.w3.org/1999/xlink" width="40" height="40"><defs><style type="text/css"></style></defs><path d="M981.333333 230.613333h-149.333333V192H981.333333v-20.309333C981.333333 148.48 956.629333 128 924.458667 128H142.208C110.08 128 85.333333 148.48 85.333333 171.690667V192h682.666667v38.613333H85.333333v493.696C85.333333 747.52 110.037333 768 142.208 768h464.853333v42.666667H142.208C88.021333 810.666667 42.666667 772.949333 42.666667 724.309333V171.690667C42.666667 123.050667 88.021333 85.333333 142.208 85.333333h782.250667C978.645333 85.333333 1024 123.050667 1024 171.690667v552.618666C1024 772.949333 978.645333 810.666667 924.458667 810.666667v-42.666667C956.586667 768 981.333333 747.52 981.333333 724.309333V230.613333zM856.874667 746.666667v221.312l-97.749334-88.106667-97.792 88.106667V746.666667h195.541334zM285.312 490.752c17.493333 0 31.36-3.498667 41.514667-10.496 10.24-6.997333 15.317333-19.626667 15.317333-37.888 0-19.626667-7.125333-32.981333-21.376-40.106667-7.68-3.754667-17.834667-5.632-30.592-5.632H199.082667v94.122667h86.229333zM161.749333 364.544h127.488c20.992 0 38.314667 3.072 51.968 9.216 25.856 11.733333 38.826667 33.408 38.826667 65.066667 0 16.469333-3.413333 29.994667-10.24 40.490666a73.813333 73.813333 0 0 1-28.586667 25.301334c10.752 4.394667 18.816 10.112 24.277334 17.237333 5.418667 7.125333 8.448 18.688 9.088 34.688l1.28 36.949333c0.426667 10.496 1.28 18.346667 2.645333 23.466667 2.261333 8.746667 6.272 14.336 11.989333 16.853333V640H344.746667a34.432 34.432 0 0 1-2.986667-9.173333 176.341333 176.341333 0 0 1-1.877333-21.76l-2.261334-45.952c-0.853333-18.005333-7.552-30.037333-20.053333-36.181334-7.125333-3.370667-18.346667-5.077333-33.578667-5.077333h-84.906666V640H161.706667V364.544z m321.194667 186.581333c0.853333 15.616 4.565333 28.330667 11.093333 38.058667 12.373333 18.261333 34.133333 27.392 65.408 27.392 13.994667 0 26.752-2.005333 38.229334-5.973333 22.272-7.808 33.408-21.674667 33.408-41.685334 0-14.976-4.693333-25.685333-14.08-32.042666-9.514667-6.229333-24.362667-11.690667-44.629334-16.298667l-37.290666-8.448c-24.405333-5.504-41.642667-11.562667-51.754667-18.176-17.493333-11.52-26.282667-28.714667-26.282667-51.584 0-24.746667 8.576-45.056 25.685334-60.928 17.152-15.872 41.386667-23.808 72.789333-23.808 28.842667 0 53.376 6.954667 73.557333 20.906667 20.224 13.909333 30.293333 36.224 30.293334 66.816h-35.072c-1.877333-14.72-5.845333-26.026667-11.946667-33.92-11.434667-14.378667-30.72-21.546667-57.984-21.546667-21.973333 0-37.802667 4.608-47.445333 13.866667a43.434667 43.434667 0 0 0-14.421334 32.256c0 13.482667 5.632 23.381333 16.853334 29.610666 7.381333 4.010667 24.064 9.002667 50.090666 15.018667l38.613334 8.789333c18.645333 4.266667 33.024 10.069333 43.093333 17.450667 17.536 12.885333 26.282667 31.573333 26.282667 56.064 0 30.506667-11.093333 52.309333-33.28 65.450667-22.186667 13.098667-47.957333 19.669333-77.354667 19.669333-34.218667 0-61.013333-8.746667-80.426667-26.24-19.370667-17.365333-28.885333-40.96-28.501333-70.698667h35.072z m397.098667-24.021333l-41.813334-121.685333-44.416 121.685333h86.229334z m-61.312-162.56h42.24L960.853333 640h-40.917333l-27.904-82.517333h-108.970667L753.322667 640h-38.272l103.68-275.456z" p-id="15815"></path></svg>