<svg width="17px" height="17px" xmlns="http://www.w3.org/2000/svg" xmlns:xlink="http://www.w3.org/1999/xlink" class="icon" viewBox="0 0 1024 1024" id="icon-trough"><path d="M179.2 339.2h32c44.8 0 83.2 12.8 115.2 44.8 6.4 6.4 12.8 6.4 25.6 6.4s19.2-6.4 25.6-12.8c12.8-12.8 12.8-38.4 0-51.2-44.8-38.4-102.4-64-160-64h-38.4c-19.2 0-32 12.8-32 32-6.4 25.6 12.8 44.8 32 44.8zM633.6 339.2h83.2L608 416c-6.4 6.4-12.8 12.8-12.8 25.6 0 19.2 12.8 32 32 32 6.4 0 12.8 0 19.2-6.4l230.4-166.4-230.4-166.4c-12.8-12.8-32-6.4-44.8 6.4-12.8 19.2-6.4 38.4 6.4 51.2l102.4 76.8H633.6C492.8 268.8 384 377.6 384 512c0 96-76.8 172.8-172.8 172.8h-32c-19.2 0-32 12.8-32 32s12.8 32 32 32h32c134.4 0 243.2-108.8 243.2-243.2 0-89.6 83.2-166.4 179.2-166.4zM601.6 563.2c-12.8 12.8-6.4 38.4 6.4 44.8l102.4 76.8H633.6c-44.8 0-83.2-12.8-115.2-44.8-12.8-12.8-32-12.8-44.8 0-12.8 12.8-12.8 38.4 0 51.2 44.8 38.4 102.4 64 160 64h83.2L608 832c-6.4 6.4-12.8 19.2-12.8 25.6 0 19.2 12.8 32 32 32 6.4 0 12.8 0 19.2-6.4l230.4-166.4-230.4-166.4c-12.8-6.4-32-6.4-44.8 12.8z" p-id="3543"></path></svg>