<svg t="1580896328212" class="icon" viewBox="0 0 1024 1024" version="1.1" xmlns="http://www.w3.org/2000/svg" p-id="1363" width="40" height="40"><path d="M957.696 127.04a197.952 197.952 0 0 0-279.552-14.656L446.272 321.28a34.944 34.944 0 0 0-2.56 49.6c12.992 14.464 35.2 15.616 49.472 2.56l231.872-208.896a127.808 127.808 0 0 1 213.12 101.632A126.592 126.592 0 0 1 896 354.56L664.32 563.264a34.944 34.944 0 0 0 21.696 61.056 35.2 35.2 0 0 0 25.344-8.896l231.872-208.896a198.08 198.08 0 0 0 14.528-279.552zM107.072 916.928a197.952 197.952 0 0 0 279.808 9.792l228.224-212.928a34.944 34.944 0 0 0 1.728-49.6 34.88 34.88 0 0 0-49.6-1.728l-228.224 212.928a127.808 127.808 0 0 1-214.784-97.92 126.592 126.592 0 0 1 40.576-88.96l228.096-212.928a34.944 34.944 0 0 0-22.72-60.672 35.2 35.2 0 0 0-25.216 9.344L116.736 637.184a198.08 198.08 0 0 0-9.6 279.744z"  p-id="1364"></path><path d="M376.32 286.976a34.88 34.88 0 0 0 35.008-34.944l-0.128-140.16a34.88 34.88 0 0 0-34.944-34.944 34.88 34.88 0 0 0-34.944 34.944V252.16a35.008 35.008 0 0 0 35.072 34.816zM827.264 749.632a28.544 28.544 0 0 0-20.48-8.32 28.864 28.864 0 0 0-20.48 49.344l82.112 82.112a28.8 28.8 0 0 0 40.96 0 28.864 28.864 0 0 0 0-40.96l-82.112-82.176zM953.024 601.28H812.8a34.24 34.24 0 0 0-24.576 10.304 34.88 34.88 0 0 0 24.576 59.712l140.16-0.128c19.328 0.128 34.944-15.616 34.944-34.944a34.752 34.752 0 0 0-34.816-34.944zM672.768 741.312a34.88 34.88 0 0 0-35.008 34.88l0.128 140.16c-0.128 19.328 15.616 35.008 34.944 35.008a34.88 34.88 0 0 0 34.944-34.944v-140.288a35.008 35.008 0 0 0-35.072-34.816zM221.824 278.656c5.76 5.568 12.992 8.384 20.416 8.32a28.864 28.864 0 0 0 20.48-49.408L180.672 155.52a28.8 28.8 0 0 0-40.96 0 28.928 28.928 0 0 0 0 40.96l82.112 82.176zM96 427.008h140.352a34.24 34.24 0 0 0 24.576-10.368 34.88 34.88 0 0 0-24.576-59.648l-140.16 0.128a34.88 34.88 0 0 0-34.944 34.944 34.56 34.56 0 0 0 34.816 34.944z"  p-id="1365"></path></svg>